<svg width="35" height="35" viewBox="0 0 35 35" fill="none" xmlns="http://www.w3.org/2000/svg">
<path d="M10.0625 1.2963C10.0625 0.952497 9.92422 0.622779 9.67808 0.379676C9.43194 0.136574 9.0981 0 8.75 0C8.4019 0 8.06806 0.136574 7.82192 0.379676C7.57578 0.622779 7.4375 0.952497 7.4375 1.2963V4.02716C4.9175 4.22593 3.2655 4.71333 2.051 5.91457C0.83475 7.11407 0.34125 8.74741 0.13825 11.2346H34.8617C34.6587 8.74568 34.1652 7.11407 32.949 5.91457C31.7345 4.71333 30.0807 4.22593 27.5625 4.02543V1.2963C27.5625 0.952497 27.4242 0.622779 27.1781 0.379676C26.9319 0.136574 26.5981 0 26.25 0C25.9019 0 25.5681 0.136574 25.3219 0.379676C25.0758 0.622779 24.9375 0.952497 24.9375 1.2963V3.91136C23.7738 3.88889 22.4683 3.88889 21 3.88889H14C12.5317 3.88889 11.2262 3.88889 10.0625 3.91136V1.2963Z" fill="white"/>
<path fill-rule="evenodd" clip-rule="evenodd" d="M0 17.716C0 16.2659 1.95578e-08 14.9765 0.02275 13.8272H34.9772C35 14.9765 35 16.2659 35 17.716V21.1728C35 27.6906 35 30.9504 32.949 32.9743C30.898 34.9983 27.5993 35 21 35H14C7.40075 35 4.10025 35 2.051 32.9743C0.00174987 30.9486 0 27.6906 0 21.1728V17.716ZM26.25 21.1728C26.7141 21.1728 27.1593 20.9907 27.4874 20.6666C27.8156 20.3425 28 19.9028 28 19.4444C28 18.986 27.8156 18.5464 27.4874 18.2223C27.1593 17.8981 26.7141 17.716 26.25 17.716C25.7859 17.716 25.3407 17.8981 25.0126 18.2223C24.6844 18.5464 24.5 18.986 24.5 19.4444C24.5 19.9028 24.6844 20.3425 25.0126 20.6666C25.3407 20.9907 25.7859 21.1728 26.25 21.1728ZM26.25 28.0864C26.7141 28.0864 27.1593 27.9043 27.4874 27.5802C27.8156 27.2561 28 26.8164 28 26.358C28 25.8996 27.8156 25.46 27.4874 25.1359C27.1593 24.8117 26.7141 24.6296 26.25 24.6296C25.7859 24.6296 25.3407 24.8117 25.0126 25.1359C24.6844 25.46 24.5 25.8996 24.5 26.358C24.5 26.8164 24.6844 27.2561 25.0126 27.5802C25.3407 27.9043 25.7859 28.0864 26.25 28.0864ZM19.25 19.4444C19.25 19.9028 19.0656 20.3425 18.7374 20.6666C18.4092 20.9907 17.9641 21.1728 17.5 21.1728C17.0359 21.1728 16.5908 20.9907 16.2626 20.6666C15.9344 20.3425 15.75 19.9028 15.75 19.4444C15.75 18.986 15.9344 18.5464 16.2626 18.2223C16.5908 17.8981 17.0359 17.716 17.5 17.716C17.9641 17.716 18.4092 17.8981 18.7374 18.2223C19.0656 18.5464 19.25 18.986 19.25 19.4444ZM19.25 26.358C19.25 26.8164 19.0656 27.2561 18.7374 27.5802C18.4092 27.9043 17.9641 28.0864 17.5 28.0864C17.0359 28.0864 16.5908 27.9043 16.2626 27.5802C15.9344 27.2561 15.75 26.8164 15.75 26.358C15.75 25.8996 15.9344 25.46 16.2626 25.1359C16.5908 24.8117 17.0359 24.6296 17.5 24.6296C17.9641 24.6296 18.4092 24.8117 18.7374 25.1359C19.0656 25.46 19.25 25.8996 19.25 26.358ZM8.75 21.1728C9.21413 21.1728 9.65925 20.9907 9.98744 20.6666C10.3156 20.3425 10.5 19.9028 10.5 19.4444C10.5 18.986 10.3156 18.5464 9.98744 18.2223C9.65925 17.8981 9.21413 17.716 8.75 17.716C8.28587 17.716 7.84075 17.8981 7.51256 18.2223C7.18437 18.5464 7 18.986 7 19.4444C7 19.9028 7.18437 20.3425 7.51256 20.6666C7.84075 20.9907 8.28587 21.1728 8.75 21.1728ZM8.75 28.0864C9.21413 28.0864 9.65925 27.9043 9.98744 27.5802C10.3156 27.2561 10.5 26.8164 10.5 26.358C10.5 25.8996 10.3156 25.46 9.98744 25.1359C9.65925 24.8117 9.21413 24.6296 8.75 24.6296C8.28587 24.6296 7.84075 24.8117 7.51256 25.1359C7.18437 25.46 7 25.8996 7 26.358C7 26.8164 7.18437 27.2561 7.51256 27.5802C7.84075 27.9043 8.28587 28.0864 8.75 28.0864Z" fill="white"/>
</svg>
