<svg width="44" height="46" viewBox="0 0 44 46" fill="none" xmlns="http://www.w3.org/2000/svg">
<path d="M12.65 2.16667C12.65 1.72464 12.4762 1.30072 12.1667 0.988155C11.8573 0.675595 11.4376 0.5 11 0.5C10.5624 0.5 10.1427 0.675595 9.83327 0.988155C9.52384 1.30072 9.35 1.72464 9.35 2.16667V5.67778C6.182 5.93333 4.1052 6.56 2.5784 8.10444C1.0494 9.64667 0.429 11.7467 0.1738 14.9444H43.8262C43.571 11.7444 42.9506 9.64667 41.4216 8.10444C39.8948 6.56 37.8158 5.93333 34.65 5.67556V2.16667C34.65 1.72464 34.4762 1.30072 34.1667 0.988155C33.8573 0.675595 33.4376 0.5 33 0.5C32.5624 0.5 32.1427 0.675595 31.8333 0.988155C31.5238 1.30072 31.35 1.72464 31.35 2.16667V5.52889C29.887 5.5 28.2458 5.5 26.4 5.5H17.6C15.7542 5.5 14.113 5.5 12.65 5.52889V2.16667Z" fill="#0077C8"/>
<path fill-rule="evenodd" clip-rule="evenodd" d="M0 23.2778C0 21.4133 2.45869e-08 19.7556 0.0286 18.2778H43.9714C44 19.7556 44 21.4133 44 23.2778V27.7222C44 36.1022 44 40.2933 41.4216 42.8956C38.8432 45.4978 34.6962 45.5 26.4 45.5H17.6C9.3038 45.5 5.1546 45.5 2.5784 42.8956C0.00219984 40.2911 0 36.1022 0 27.7222V23.2778ZM33 27.7222C33.5835 27.7222 34.1431 27.4881 34.5556 27.0714C34.9682 26.6546 35.2 26.0894 35.2 25.5C35.2 24.9106 34.9682 24.3454 34.5556 23.9287C34.1431 23.5119 33.5835 23.2778 33 23.2778C32.4165 23.2778 31.8569 23.5119 31.4444 23.9287C31.0318 24.3454 30.8 24.9106 30.8 25.5C30.8 26.0894 31.0318 26.6546 31.4444 27.0714C31.8569 27.4881 32.4165 27.7222 33 27.7222ZM33 36.6111C33.5835 36.6111 34.1431 36.377 34.5556 35.9602C34.9682 35.5435 35.2 34.9783 35.2 34.3889C35.2 33.7995 34.9682 33.2343 34.5556 32.8175C34.1431 32.4008 33.5835 32.1667 33 32.1667C32.4165 32.1667 31.8569 32.4008 31.4444 32.8175C31.0318 33.2343 30.8 33.7995 30.8 34.3889C30.8 34.9783 31.0318 35.5435 31.4444 35.9602C31.8569 36.377 32.4165 36.6111 33 36.6111ZM24.2 25.5C24.2 26.0894 23.9682 26.6546 23.5556 27.0714C23.1431 27.4881 22.5835 27.7222 22 27.7222C21.4165 27.7222 20.8569 27.4881 20.4444 27.0714C20.0318 26.6546 19.8 26.0894 19.8 25.5C19.8 24.9106 20.0318 24.3454 20.4444 23.9287C20.8569 23.5119 21.4165 23.2778 22 23.2778C22.5835 23.2778 23.1431 23.5119 23.5556 23.9287C23.9682 24.3454 24.2 24.9106 24.2 25.5ZM24.2 34.3889C24.2 34.9783 23.9682 35.5435 23.5556 35.9602C23.1431 36.377 22.5835 36.6111 22 36.6111C21.4165 36.6111 20.8569 36.377 20.4444 35.9602C20.0318 35.5435 19.8 34.9783 19.8 34.3889C19.8 33.7995 20.0318 33.2343 20.4444 32.8175C20.8569 32.4008 21.4165 32.1667 22 32.1667C22.5835 32.1667 23.1431 32.4008 23.5556 32.8175C23.9682 33.2343 24.2 33.7995 24.2 34.3889ZM11 27.7222C11.5835 27.7222 12.1431 27.4881 12.5556 27.0714C12.9682 26.6546 13.2 26.0894 13.2 25.5C13.2 24.9106 12.9682 24.3454 12.5556 23.9287C12.1431 23.5119 11.5835 23.2778 11 23.2778C10.4165 23.2778 9.85695 23.5119 9.44437 23.9287C9.03179 24.3454 8.8 24.9106 8.8 25.5C8.8 26.0894 9.03179 26.6546 9.44437 27.0714C9.85695 27.4881 10.4165 27.7222 11 27.7222ZM11 36.6111C11.5835 36.6111 12.1431 36.377 12.5556 35.9602C12.9682 35.5435 13.2 34.9783 13.2 34.3889C13.2 33.7995 12.9682 33.2343 12.5556 32.8175C12.1431 32.4008 11.5835 32.1667 11 32.1667C10.4165 32.1667 9.85695 32.4008 9.44437 32.8175C9.03179 33.2343 8.8 33.7995 8.8 34.3889C8.8 34.9783 9.03179 35.5435 9.44437 35.9602C9.85695 36.377 10.4165 36.6111 11 36.6111Z" fill="#0077C8"/>
</svg>
