<svg width="62" height="45" viewBox="0 0 62 45" fill="none" xmlns="http://www.w3.org/2000/svg">
<path d="M22.5455 28.125C30.07 28.125 45.0909 31.8656 45.0909 39.375V45H1.43051e-06V39.375C1.43051e-06 31.8656 15.0209 28.125 22.5455 28.125ZM47.9091 16.875V8.4375H53.5455V16.875H62V22.5H53.5455V30.9375H47.9091V22.5H39.4545V16.875M22.5455 22.5C19.5557 22.5 16.6885 21.3147 14.5744 19.205C12.4604 17.0952 11.2727 14.2337 11.2727 11.25C11.2727 8.26631 12.4604 5.40483 14.5744 3.29505C16.6885 1.18526 19.5557 0 22.5455 0C25.5352 0 28.4024 1.18526 30.5165 3.29505C32.6305 5.40483 33.8182 8.26631 33.8182 11.25C33.8182 14.2337 32.6305 17.0952 30.5165 19.205C28.4024 21.3147 25.5352 22.5 22.5455 22.5Z" fill="#0077C8"/>
</svg>
