<svg width="45" height="45" viewBox="0 0 45 45" fill="none" xmlns="http://www.w3.org/2000/svg">
<path d="M9.05 19.475C12.65 26.55 18.45 32.325 25.525 35.95L31.025 30.45C31.7 29.775 32.7 29.55 33.575 29.85C36.375 30.775 39.4 31.275 42.5 31.275C43.875 31.275 45 32.4 45 33.775V42.5C45 43.875 43.875 45 42.5 45C19.025 45 0 25.975 0 2.5C0 1.125 1.125 0 2.5 0H11.25C12.625 0 13.75 1.125 13.75 2.5C13.75 5.625 14.25 8.625 15.175 11.425C15.45 12.3 15.25 13.275 14.55 13.975L9.05 19.475Z" fill="#0077C8"/>
</svg>
