<svg width="32" height="45" viewBox="0 0 32 45" fill="none" xmlns="http://www.w3.org/2000/svg">
<path d="M11.4199 16.4248L8.84844 22.4998H13.9913L11.4199 16.4248Z" fill="#0077C8"/>
<path fill-rule="evenodd" clip-rule="evenodd" d="M32 12.375L20.5714 0H4.57143C3.35901 0 2.19625 0.474106 1.33894 1.31802C0.481631 2.16193 0 3.30653 0 4.5V40.5C0 41.6935 0.481631 42.8381 1.33894 43.682C2.19625 44.5259 3.35901 45 4.57143 45H27.4286C28.641 45 29.8037 44.5259 30.6611 43.682C31.5184 42.8381 32 41.6935 32 40.5V12.375ZM11.4286 12.375C11.6541 12.375 11.8747 12.4407 12.0624 12.5638C12.2501 12.6869 12.3966 12.862 12.4834 13.0669L18.1977 26.5669C18.3144 26.8423 18.3152 27.152 18.1999 27.428C18.0846 27.7039 17.8626 27.9235 17.5829 28.0384C17.3031 28.1532 16.9884 28.154 16.7081 28.0405C16.4277 27.927 16.2047 27.7085 16.088 27.4331L14.952 24.75H7.90514L6.76914 27.4331C6.65245 27.7085 6.4294 27.927 6.14906 28.0405C5.86871 28.154 5.55405 28.1532 5.27429 28.0384C4.99452 27.9235 4.77257 27.7039 4.65726 27.428C4.54195 27.152 4.54273 26.8423 4.65943 26.5669L10.3737 13.0669C10.4606 12.862 10.6071 12.6869 10.7948 12.5638C10.9825 12.4407 11.203 12.375 11.4286 12.375ZM5.71429 31.5C5.41118 31.5 5.12049 31.6185 4.90616 31.8295C4.69184 32.0405 4.57143 32.3266 4.57143 32.625C4.57143 32.9234 4.69184 33.2095 4.90616 33.4205C5.12049 33.6315 5.41118 33.75 5.71429 33.75H26.2857C26.5888 33.75 26.8795 33.6315 27.0938 33.4205C27.3082 33.2095 27.4286 32.9234 27.4286 32.625C27.4286 32.3266 27.3082 32.0405 27.0938 31.8295C26.8795 31.6185 26.5888 31.5 26.2857 31.5H5.71429ZM4.57143 37.125C4.57143 36.8266 4.69184 36.5405 4.90616 36.3295C5.12049 36.1185 5.41118 36 5.71429 36H19.4286C19.7317 36 20.0224 36.1185 20.2367 36.3295C20.451 36.5405 20.5714 36.8266 20.5714 37.125C20.5714 37.4234 20.451 37.7095 20.2367 37.9205C20.0224 38.1315 19.7317 38.25 19.4286 38.25H5.71429C5.41118 38.25 5.12049 38.1315 4.90616 37.9205C4.69184 37.7095 4.57143 37.4234 4.57143 37.125ZM24 20.25C24 19.9516 23.8796 19.6655 23.6653 19.4545C23.4509 19.2435 23.1602 19.125 22.8571 19.125C22.554 19.125 22.2633 19.2435 22.049 19.4545C21.8347 19.6655 21.7143 19.9516 21.7143 20.25V22.5H19.4286C19.1255 22.5 18.8348 22.6185 18.6204 22.8295C18.4061 23.0405 18.2857 23.3266 18.2857 23.625C18.2857 23.9234 18.4061 24.2095 18.6204 24.4205C18.8348 24.6315 19.1255 24.75 19.4286 24.75H21.7143V27C21.7143 27.2984 21.8347 27.5845 22.049 27.7955C22.2633 28.0065 22.554 28.125 22.8571 28.125C23.1602 28.125 23.4509 28.0065 23.6653 27.7955C23.8796 27.5845 24 27.2984 24 27V24.75H26.2857C26.5888 24.75 26.8795 24.6315 27.0938 24.4205C27.3082 24.2095 27.4286 23.9234 27.4286 23.625C27.4286 23.3266 27.3082 23.0405 27.0938 22.8295C26.8795 22.6185 26.5888 22.5 26.2857 22.5H24V20.25ZM20.5714 3.375L28.5714 12.375H21.7143C21.4112 12.375 21.1205 12.2565 20.9062 12.0455C20.6918 11.8345 20.5714 11.5484 20.5714 11.25V3.375Z" fill="#0077C8"/>
<path fill-rule="evenodd" clip-rule="evenodd" d="M18.1977 26.5669C18.2305 26.6449 18.2541 26.7232 18.2686 26.802C17.7439 26.6162 17.2731 26.3073 16.8971 25.902C16.8316 25.9155 16.7669 25.9354 16.7029 25.9616C16.4236 26.0765 16.2021 26.2957 16.0868 26.5711C15.9716 26.8466 15.972 27.1557 16.088 27.4309L14.952 24.75H7.90514L6.76914 27.4331C6.64955 27.7041 6.42649 27.9167 6.14815 28.0271C5.8698 28.1375 5.5585 28.1358 5.28148 28.0222C5.00446 27.9086 4.78394 27.6923 4.66756 27.42C4.55117 27.1477 4.54825 26.8413 4.65943 26.5669L10.3737 13.0669C10.4606 12.862 10.6071 12.6869 10.7948 12.5638C10.9825 12.4407 11.203 12.375 11.4286 12.375C11.6541 12.375 11.8747 12.4407 12.0624 12.5638C12.2501 12.6869 12.3966 12.862 12.4834 13.0669L13.5383 15.5576V15.5599L18.1977 26.5669ZM18.1097 20.5087L14.5931 12.2017C14.3327 11.5869 13.8933 11.0616 13.3301 10.6921C12.767 10.3226 12.1053 10.1254 11.4286 10.1254C10.7518 10.1254 10.0902 10.3226 9.52703 10.6921C8.96388 11.0616 8.52442 11.5869 8.264 12.2017L2.54971 25.7018C2.38553 26.0886 2.29601 26.5021 2.28571 26.9212V4.5C2.28571 3.90326 2.52653 3.33097 2.95518 2.90901C3.38384 2.48705 3.96522 2.25 4.57143 2.25H18.592C18.3954 2.58525 18.2857 2.97 18.2857 3.375V11.25C18.2857 12.1451 18.6469 13.0036 19.2899 13.6365C19.9329 14.2694 20.805 14.625 21.7143 14.625H28.5714C28.9727 14.625 29.3668 14.521 29.7143 14.3235V23.625C29.7143 22.7299 29.3531 21.8714 28.7101 21.2385C28.0671 20.6056 27.195 20.25 26.2857 20.25C26.2857 19.3549 25.9245 18.4964 25.2815 17.8635C24.6385 17.2306 23.7665 16.875 22.8571 16.875C21.9478 16.875 21.0758 17.2306 20.4328 17.8635C19.7898 18.4964 19.4286 19.3549 19.4286 20.25C18.9759 20.2497 18.5277 20.3376 18.1097 20.5087ZM18.9897 22.5866C18.7459 22.6867 18.5449 22.8667 18.4208 23.0962C18.2966 23.3257 18.257 23.5904 18.3088 23.8453C18.3605 24.1002 18.5003 24.3297 18.7044 24.4946C18.9086 24.6595 19.1645 24.7498 19.4286 24.75H21.7143V27C21.7143 27.2984 21.8347 27.5845 22.049 27.7955C22.2633 28.0065 22.554 28.125 22.8571 28.125C23.1602 28.125 23.4509 28.0065 23.6653 27.7955C23.8796 27.5845 24 27.2984 24 27V24.75H26.2857C26.5888 24.75 26.8795 24.6315 27.0938 24.4205C27.3082 24.2095 27.4286 23.9234 27.4286 23.625C27.4286 23.3266 27.3082 23.0405 27.0938 22.8295C26.8795 22.6185 26.5888 22.5 26.2857 22.5H24V20.25C24 19.9516 23.8796 19.6655 23.6653 19.4545C23.4509 19.2435 23.1602 19.125 22.8571 19.125C22.554 19.125 22.2633 19.2435 22.049 19.4545C21.8347 19.6655 21.7143 19.9516 21.7143 20.25V22.5H19.4286C19.2775 22.5 19.1291 22.5294 18.9897 22.5866ZM19.9989 28.8664C20.0903 29.0014 20.1909 29.1292 20.3006 29.25H19.6983C19.808 29.1285 19.9082 29.0006 19.9989 28.8664ZM13.976 28.2982C14.1291 28.6571 14.336 28.9755 14.5851 29.25L13.976 28.2982ZM14.5851 29.25H8.26971C8.51886 28.9755 8.72686 28.6571 8.87771 28.2982L9.42857 27H13.4286L13.976 28.2982M3.81714 29.8125C3.35665 29.5116 2.9769 29.1055 2.71024 28.6289C2.44359 28.1523 2.29794 27.6193 2.28571 27.0754V32.625C2.28571 31.4516 2.89486 30.4166 3.81714 29.8125ZM3.15886 34.8761C2.59659 34.2574 2.28574 33.4552 2.28571 32.625V37.125C2.28571 36.261 2.61714 35.4735 3.15886 34.8761ZM25.4126 29.2511C25.9554 28.6549 26.2857 27.8651 26.2857 27.0011C27.195 27.0011 28.0671 26.6455 28.7101 26.0126C29.3531 25.3797 29.7143 24.5201 29.7143 23.625V32.6261C29.7143 31.731 29.3531 30.8726 28.7101 30.2396C28.0671 29.6067 27.195 29.2511 26.2857 29.2511H25.4126ZM22.6617 36.0011H26.2857C27.195 36.0011 28.0671 35.6455 28.7101 35.0126C29.3531 34.3797 29.7143 33.5212 29.7143 32.6261V40.5011C29.7143 41.0979 29.4735 41.6702 29.0448 42.0921C28.6162 42.5141 28.0348 42.7511 27.4286 42.7511H4.57143C3.96522 42.7511 3.38384 42.5141 2.95518 42.0921C2.52653 41.6702 2.28571 41.0979 2.28571 40.5011V37.1273C2.28632 38.022 2.64781 38.8798 3.29073 39.5123C3.93364 40.1447 4.80537 40.5 5.71429 40.5H19.4286C19.9772 40.5003 20.5179 40.3709 21.0053 40.1229C21.4926 39.8748 21.9124 39.5152 22.2293 39.0743C22.5462 38.6334 22.7509 38.1241 22.8264 37.5891C22.9018 37.0542 22.8457 36.5092 22.6629 36M26.2857 33.75C26.5888 33.75 26.8795 33.6315 27.0938 33.4205C27.3082 33.2095 27.4286 32.9234 27.4286 32.625C27.4286 32.3266 27.3082 32.0405 27.0938 31.8295C26.8795 31.6185 26.5888 31.5 26.2857 31.5H5.71429C5.41118 31.5 5.12049 31.6185 4.90616 31.8295C4.69184 32.0405 4.57143 32.3266 4.57143 32.625C4.57143 32.9234 4.69184 33.2095 4.90616 33.4205C5.12049 33.6315 5.41118 33.75 5.71429 33.75H26.2857ZM32 12.375V40.5C32 41.6935 31.5184 42.8381 30.6611 43.682C29.8037 44.5259 28.641 45 27.4286 45H4.57143C3.35901 45 2.19625 44.5259 1.33894 43.682C0.481631 42.8381 0 41.6935 0 40.5V4.5C0 3.30653 0.481631 2.16193 1.33894 1.31802C2.19625 0.474106 3.35901 0 4.57143 0H20.5714L32 12.375ZM20.5714 3.375L28.5714 12.375H21.7143C21.4112 12.375 21.1205 12.2565 20.9062 12.0455C20.6918 11.8345 20.5714 11.5484 20.5714 11.25V3.375ZM14 22.5H8.85714L11.4286 16.425L14 22.5ZM5.71429 36C5.41118 36 5.12049 36.1185 4.90616 36.3295C4.69184 36.5405 4.57143 36.8266 4.57143 37.125C4.57143 37.4234 4.69184 37.7095 4.90616 37.9205C5.12049 38.1315 5.41118 38.25 5.71429 38.25H19.4286C19.7317 38.25 20.0224 38.1315 20.2367 37.9205C20.451 37.7095 20.5714 37.4234 20.5714 37.125C20.5714 36.8266 20.451 36.5405 20.2367 36.3295C20.0224 36.1185 19.7317 36 19.4286 36H5.71429Z" fill="#0077C8"/>
</svg>
