<svg width="25" height="35" viewBox="0 0 25 35" fill="none" xmlns="http://www.w3.org/2000/svg">
<path d="M8.92177 12.7748L6.91285 17.4998H10.9307L8.92177 12.7748Z" fill="white"/>
<path fill-rule="evenodd" clip-rule="evenodd" d="M25 9.625L16.0714 0H3.57143C2.62423 0 1.71582 0.368749 1.04605 1.02513C0.376274 1.6815 0 2.57174 0 3.5V31.5C0 32.4283 0.376274 33.3185 1.04605 33.9749C1.71582 34.6312 2.62423 35 3.57143 35H21.4286C22.3758 35 23.2842 34.6312 23.954 33.9749C24.6237 33.3185 25 32.4283 25 31.5V9.625ZM8.92857 9.625C9.10479 9.62499 9.27708 9.67608 9.42373 9.77184C9.57038 9.86759 9.68483 10.0037 9.75268 10.1631L14.217 20.6631C14.3081 20.8773 14.3087 21.1182 14.2187 21.3329C14.1286 21.5475 13.9552 21.7183 13.7366 21.8076C13.518 21.897 13.2722 21.8976 13.0532 21.8093C12.8342 21.721 12.6599 21.5511 12.5687 21.3369L11.6813 19.25H6.17589L5.28839 21.3369C5.19722 21.5511 5.02296 21.721 4.80395 21.8093C4.58493 21.8976 4.3391 21.897 4.12054 21.8076C3.90197 21.7183 3.72857 21.5475 3.63849 21.3329C3.5484 21.1182 3.54901 20.8773 3.64018 20.6631L8.10446 10.1631C8.17231 10.0037 8.28677 9.86759 8.43341 9.77184C8.58006 9.67608 8.75235 9.62499 8.92857 9.625ZM4.46429 24.5C4.22749 24.5 4.00038 24.5922 3.83294 24.7563C3.6655 24.9204 3.57143 25.1429 3.57143 25.375C3.57143 25.6071 3.6655 25.8296 3.83294 25.9937C4.00038 26.1578 4.22749 26.25 4.46429 26.25H20.5357C20.7725 26.25 20.9996 26.1578 21.1671 25.9937C21.3345 25.8296 21.4286 25.6071 21.4286 25.375C21.4286 25.1429 21.3345 24.9204 21.1671 24.7563C20.9996 24.5922 20.7725 24.5 20.5357 24.5H4.46429ZM3.57143 28.875C3.57143 28.6429 3.6655 28.4204 3.83294 28.2563C4.00038 28.0922 4.22749 28 4.46429 28H15.1786C15.4154 28 15.6425 28.0922 15.8099 28.2563C15.9774 28.4204 16.0714 28.6429 16.0714 28.875C16.0714 29.1071 15.9774 29.3296 15.8099 29.4937C15.6425 29.6578 15.4154 29.75 15.1786 29.75H4.46429C4.22749 29.75 4.00038 29.6578 3.83294 29.4937C3.6655 29.3296 3.57143 29.1071 3.57143 28.875ZM18.75 15.75C18.75 15.5179 18.6559 15.2954 18.4885 15.1313C18.321 14.9672 18.0939 14.875 17.8571 14.875C17.6203 14.875 17.3932 14.9672 17.2258 15.1313C17.0584 15.2954 16.9643 15.5179 16.9643 15.75V17.5H15.1786C14.9418 17.5 14.7147 17.5922 14.5472 17.7563C14.3798 17.9204 14.2857 18.1429 14.2857 18.375C14.2857 18.6071 14.3798 18.8296 14.5472 18.9937C14.7147 19.1578 14.9418 19.25 15.1786 19.25H16.9643V21C16.9643 21.2321 17.0584 21.4546 17.2258 21.6187C17.3932 21.7828 17.6203 21.875 17.8571 21.875C18.0939 21.875 18.321 21.7828 18.4885 21.6187C18.6559 21.4546 18.75 21.2321 18.75 21V19.25H20.5357C20.7725 19.25 20.9996 19.1578 21.1671 18.9937C21.3345 18.8296 21.4286 18.6071 21.4286 18.375C21.4286 18.1429 21.3345 17.9204 21.1671 17.7563C20.9996 17.5922 20.7725 17.5 20.5357 17.5H18.75V15.75ZM16.0714 2.625L22.3214 9.625H16.9643C16.7275 9.625 16.5004 9.53281 16.3329 9.36872C16.1655 9.20462 16.0714 8.98206 16.0714 8.75V2.625Z" fill="white"/>
<path fill-rule="evenodd" clip-rule="evenodd" d="M14.217 20.6631C14.2426 20.7238 14.261 20.7847 14.2723 20.846C13.8624 20.7015 13.4946 20.4612 13.2009 20.146C13.1497 20.1565 13.0991 20.172 13.0491 20.1924C12.831 20.2817 12.6579 20.4522 12.5678 20.6664C12.4778 20.8807 12.4781 21.1211 12.5687 21.3351L11.6813 19.25H6.17589L5.28839 21.3369C5.19496 21.5476 5.0207 21.713 4.80324 21.7989C4.58578 21.8848 4.34258 21.8834 4.12616 21.795C3.90973 21.7067 3.73746 21.5384 3.64653 21.3266C3.5556 21.1149 3.55332 20.8765 3.64018 20.6631L8.10446 10.1631C8.17231 10.0037 8.28677 9.86759 8.43341 9.77184C8.58006 9.67608 8.75235 9.62499 8.92857 9.625C9.10479 9.62499 9.27708 9.67608 9.42373 9.77184C9.57038 9.86759 9.68483 10.0037 9.75268 10.1631L10.5768 12.1004V12.1021L14.217 20.6631ZM14.1482 15.9513L11.4009 9.49025C11.1974 9.012 10.8541 8.60345 10.4142 8.31607C9.9742 8.0287 9.4573 7.87535 8.92857 7.87535C8.39985 7.87535 7.88295 8.0287 7.44299 8.31607C7.00303 8.60345 6.6597 9.012 6.45625 9.49025L1.99196 19.9902C1.8637 20.2911 1.79376 20.6128 1.78571 20.9388V3.5C1.78571 3.03587 1.97385 2.59075 2.30874 2.26256C2.64362 1.93437 3.09783 1.75 3.57143 1.75H14.525C14.3714 2.01075 14.2857 2.31 14.2857 2.625V8.75C14.2857 9.44619 14.5679 10.1139 15.0702 10.6062C15.5726 11.0984 16.2539 11.375 16.9643 11.375H22.3214C22.6349 11.375 22.9428 11.2941 23.2143 11.1405V18.375C23.2143 17.6788 22.9321 17.0111 22.4297 16.5188C21.9274 16.0266 21.2461 15.75 20.5357 15.75C20.5357 15.0538 20.2535 14.3861 19.7512 13.8938C19.2488 13.4016 18.5675 13.125 17.8571 13.125C17.1467 13.125 16.4654 13.4016 15.9631 13.8938C15.4608 14.3861 15.1786 15.0538 15.1786 15.75C14.8249 15.7498 14.4747 15.8182 14.1482 15.9513ZM14.8357 17.5674C14.6453 17.6452 14.4882 17.7852 14.3912 17.9637C14.2942 18.1422 14.2633 18.3481 14.3037 18.5463C14.3441 18.7446 14.4534 18.9231 14.6128 19.0514C14.7723 19.1796 14.9722 19.2498 15.1786 19.25H16.9643V21C16.9643 21.2321 17.0584 21.4546 17.2258 21.6187C17.3932 21.7828 17.6203 21.875 17.8571 21.875C18.0939 21.875 18.321 21.7828 18.4885 21.6187C18.6559 21.4546 18.75 21.2321 18.75 21V19.25H20.5357C20.7725 19.25 20.9996 19.1578 21.1671 18.9937C21.3345 18.8296 21.4286 18.6071 21.4286 18.375C21.4286 18.1429 21.3345 17.9204 21.1671 17.7563C20.9996 17.5922 20.7725 17.5 20.5357 17.5H18.75V15.75C18.75 15.5179 18.6559 15.2954 18.4885 15.1313C18.321 14.9672 18.0939 14.875 17.8571 14.875C17.6203 14.875 17.3932 14.9672 17.2258 15.1313C17.0584 15.2954 16.9643 15.5179 16.9643 15.75V17.5H15.1786C15.0606 17.5 14.9446 17.5229 14.8357 17.5674ZM15.6241 22.4516C15.6955 22.5566 15.7741 22.6561 15.8598 22.75H15.3893C15.475 22.6555 15.5533 22.556 15.6241 22.4516ZM10.9187 22.0098C11.0384 22.2889 11.2 22.5365 11.3946 22.75L10.9187 22.0098ZM11.3946 22.75H6.46071C6.65536 22.5365 6.81786 22.2889 6.93571 22.0098L7.36607 21H10.4911L10.9187 22.0098M2.98214 23.1875C2.62238 22.9534 2.3257 22.6376 2.11738 22.2669C1.90905 21.8963 1.79527 21.4817 1.78571 21.0586V25.375C1.78571 24.4624 2.26161 23.6574 2.98214 23.1875ZM2.46786 27.1259C2.02859 26.6446 1.78573 26.0207 1.78571 25.375V28.875C1.78571 28.203 2.04464 27.5905 2.46786 27.1259ZM19.8536 22.7509C20.2777 22.2871 20.5357 21.6729 20.5357 21.0009C21.2461 21.0009 21.9274 20.7243 22.4297 20.232C22.9321 19.7397 23.2143 19.0712 23.2143 18.375V25.3759C23.2143 24.6797 22.9321 24.012 22.4297 23.5197C21.9274 23.0274 21.2461 22.7509 20.5357 22.7509H19.8536ZM17.7045 28.0009H20.5357C21.2461 28.0009 21.9274 27.7243 22.4297 27.232C22.9321 26.7397 23.2143 26.0721 23.2143 25.3759V31.5009C23.2143 31.965 23.0261 32.4101 22.6913 32.7383C22.3564 33.0665 21.9022 33.2509 21.4286 33.2509H3.57143C3.09783 33.2509 2.64362 33.0665 2.30874 32.7383C1.97385 32.4101 1.78571 31.965 1.78571 31.5009V28.8767C1.78619 29.5726 2.0686 30.2399 2.57088 30.7318C3.07316 31.2237 3.75419 31.5 4.46429 31.5H15.1786C15.6072 31.5002 16.0296 31.3996 16.4104 31.2067C16.7911 31.0137 17.119 30.734 17.3666 30.3911C17.6142 30.0482 17.7742 29.6521 17.8331 29.236C17.892 28.8199 17.8482 28.396 17.7054 28M20.5357 26.25C20.7725 26.25 20.9996 26.1578 21.1671 25.9937C21.3345 25.8296 21.4286 25.6071 21.4286 25.375C21.4286 25.1429 21.3345 24.9204 21.1671 24.7563C20.9996 24.5922 20.7725 24.5 20.5357 24.5H4.46429C4.22749 24.5 4.00038 24.5922 3.83294 24.7563C3.6655 24.9204 3.57143 25.1429 3.57143 25.375C3.57143 25.6071 3.6655 25.8296 3.83294 25.9937C4.00038 26.1578 4.22749 26.25 4.46429 26.25H20.5357ZM25 9.625V31.5C25 32.4283 24.6237 33.3185 23.954 33.9749C23.2842 34.6312 22.3758 35 21.4286 35H3.57143C2.62423 35 1.71582 34.6312 1.04605 33.9749C0.376274 33.3185 0 32.4283 0 31.5V3.5C0 2.57174 0.376274 1.6815 1.04605 1.02513C1.71582 0.368749 2.62423 0 3.57143 0H16.0714L25 9.625ZM16.0714 2.625L22.3214 9.625H16.9643C16.7275 9.625 16.5004 9.53281 16.3329 9.36872C16.1655 9.20462 16.0714 8.98206 16.0714 8.75V2.625ZM10.9375 17.5H6.91964L8.92857 12.775L10.9375 17.5ZM4.46429 28C4.22749 28 4.00038 28.0922 3.83294 28.2563C3.6655 28.4204 3.57143 28.6429 3.57143 28.875C3.57143 29.1071 3.6655 29.3296 3.83294 29.4937C4.00038 29.6578 4.22749 29.75 4.46429 29.75H15.1786C15.4154 29.75 15.6425 29.6578 15.8099 29.4937C15.9774 29.3296 16.0714 29.1071 16.0714 28.875C16.0714 28.6429 15.9774 28.4204 15.8099 28.2563C15.6425 28.0922 15.4154 28 15.1786 28H4.46429Z" fill="white"/>
</svg>
