<svg width="46" height="45" viewBox="0 0 46 45" fill="none" xmlns="http://www.w3.org/2000/svg">
<path d="M22.5454 28.125C30.0699 28.125 45.0908 31.8656 45.0908 39.375V45H-9.15527e-05V39.375C-9.15527e-05 31.8656 15.0208 28.125 22.5454 28.125ZM22.5454 22.5C19.5557 22.5 16.6884 21.3147 14.5743 19.205C12.4603 17.0952 11.2726 14.2337 11.2726 11.25C11.2726 8.26631 12.4603 5.40483 14.5743 3.29505C16.6884 1.18526 19.5557 0 22.5454 0C25.5351 0 28.4023 1.18526 30.5164 3.29505C32.6304 5.40483 33.8181 8.26631 33.8181 11.25C33.8181 14.2337 32.6304 17.0952 30.5164 19.205C28.4023 21.3147 25.5351 22.5 22.5454 22.5Z" fill="#0077C8"/>
</svg>
