<svg width="45" height="45" viewBox="0 0 45 45" fill="none" xmlns="http://www.w3.org/2000/svg">
<path d="M22.5 25.75C26.8387 25.75 35.5 27.9113 35.5 32.25V35.5H9.5V32.25C9.5 27.9113 18.1612 25.75 22.5 25.75ZM22.5 22.5C20.7761 22.5 19.1228 21.8152 17.9038 20.5962C16.6848 19.3772 16 17.7239 16 16C16 14.2761 16.6848 12.6228 17.9038 11.4038C19.1228 10.1848 20.7761 9.5 22.5 9.5C24.2239 9.5 25.8772 10.1848 27.0962 11.4038C28.3152 12.6228 29 14.2761 29 16C29 17.7239 28.3152 19.3772 27.0962 20.5962C25.8772 21.8152 24.2239 22.5 22.5 22.5Z" fill="#0077C8"/>
<circle cx="22.5" cy="22.5" r="21.5" stroke="#0077C8" stroke-width="2"/>
</svg>
