<svg width="62" height="45" viewBox="0 0 62 45" fill="none" xmlns="http://www.w3.org/2000/svg">
<path d="M39.4545 28.125C31.93 28.125 16.9091 31.8656 16.9091 39.375V45H62V39.375C62 31.8656 46.9791 28.125 39.4545 28.125ZM14.0909 16.875V8.4375H8.45455V16.875H0V22.5H8.45455V30.9375H14.0909V22.5H22.5455V16.875M39.4545 22.5C42.4443 22.5 45.3115 21.3147 47.4256 19.205C49.5396 17.0952 50.7273 14.2337 50.7273 11.25C50.7273 8.26631 49.5396 5.40483 47.4256 3.29505C45.3115 1.18526 42.4443 0 39.4545 0C36.4648 0 33.5976 1.18526 31.4835 3.29505C29.3695 5.40483 28.1818 8.26631 28.1818 11.25C28.1818 14.2337 29.3695 17.0952 31.4835 19.205C33.5976 21.3147 36.4648 22.5 39.4545 22.5Z" fill="#0077C8"/>
</svg>
