<svg width="48" height="35" viewBox="0 0 48 35" fill="none" xmlns="http://www.w3.org/2000/svg">
<path d="M30.5455 21.875C24.72 21.875 13.0909 24.7844 13.0909 30.625V35H48V30.625C48 24.7844 36.3709 21.875 30.5455 21.875ZM10.9091 13.125V6.5625H6.54545V13.125H0V17.5H6.54545V24.0625H10.9091V17.5H17.4545V13.125M30.5455 17.5C32.8601 17.5 35.0799 16.5781 36.7166 14.9372C38.3532 13.2962 39.2727 11.0706 39.2727 8.75C39.2727 6.42936 38.3532 4.20376 36.7166 2.56282C35.0799 0.921872 32.8601 0 30.5455 0C28.2308 0 26.011 0.921872 24.3743 2.56282C22.7377 4.20376 21.8182 6.42936 21.8182 8.75C21.8182 11.0706 22.7377 13.2962 24.3743 14.9372C26.011 16.5781 28.2308 17.5 30.5455 17.5Z" fill="white"/>
</svg>
