<svg width="38" height="47" viewBox="0 0 38 47" fill="none" xmlns="http://www.w3.org/2000/svg">
<mask id="mask0_46_151" style="mask-type:luminance" maskUnits="userSpaceOnUse" x="0" y="0" width="38" height="47">
<path d="M6.625 4.375C6.625 3.47989 6.98058 2.62145 7.61351 1.98851C8.24645 1.35558 9.10489 1 10 1H28C28.4432 1 28.8821 1.0873 29.2915 1.25691C29.701 1.42652 30.0731 1.67512 30.3865 1.98851C30.6999 2.30191 30.9485 2.67397 31.1181 3.08344C31.2877 3.49292 31.375 3.93179 31.375 4.375C31.375 4.81821 31.2877 5.25708 31.1181 5.66656C30.9485 6.07603 30.6999 6.44809 30.3865 6.76149C30.0731 7.07488 29.701 7.32348 29.2915 7.49309C28.8821 7.6627 28.4432 7.75 28 7.75H10C9.10489 7.75 8.24645 7.39442 7.61351 6.76149C6.98058 6.12855 6.625 5.27011 6.625 4.375ZM6.7375 15.76C7.05368 15.3668 7.45399 15.0495 7.90899 14.8315C8.36398 14.6134 8.86208 14.5001 9.36662 14.5H28.6311C29.136 14.4998 29.6346 14.6129 30.09 14.831C30.5454 15.049 30.9461 15.3665 31.2625 15.76L36.2552 21.9734C36.7369 22.573 36.9992 23.3192 36.9989 24.0884V42.625C36.9989 43.5201 36.6433 44.3785 36.0103 45.0115C35.3774 45.6444 34.519 46 33.6239 46H4.375C3.47989 46 2.62145 45.6444 1.98851 45.0115C1.35558 44.3785 1 43.5201 1 42.625V24.0884C0.999638 23.3192 1.262 22.573 1.74363 21.9734L6.7375 15.76Z" fill="white" stroke="white" stroke-width="2" stroke-linejoin="round"/>
<path d="M12.25 30.25H25.75M19 23.5V37" stroke="black" stroke-width="2" stroke-linecap="round" stroke-linejoin="round"/>
</mask>
<g mask="url(#mask0_46_151)">
<path d="M-0.124756 -0.125H38.1252V47.125H-0.124756V-0.125Z" fill="#0077C8"/>
</g>
</svg>
