<svg width="30" height="37" viewBox="0 0 30 37" fill="none" xmlns="http://www.w3.org/2000/svg">
<mask id="mask0_46_220" style="mask-type:luminance" maskUnits="userSpaceOnUse" x="0" y="0" width="30" height="37">
<path d="M5.375 3.625C5.375 2.92881 5.65156 2.26113 6.14384 1.76884C6.63613 1.27656 7.3038 1 8 1H22C22.3447 1 22.6861 1.0679 23.0045 1.19982C23.323 1.33174 23.6124 1.52509 23.8561 1.76884C24.0999 2.0126 24.2933 2.30198 24.4252 2.62046C24.5571 2.93894 24.625 3.28028 24.625 3.625C24.625 3.96972 24.5571 4.31106 24.4252 4.62954C24.2933 4.94802 24.0999 5.2374 23.8561 5.48116C23.6124 5.72491 23.323 5.91827 23.0045 6.05018C22.6861 6.1821 22.3447 6.25 22 6.25H8C7.3038 6.25 6.63613 5.97344 6.14384 5.48116C5.65156 4.98887 5.375 4.32119 5.375 3.625ZM5.4625 12.48C5.70842 12.1742 6.01977 11.9274 6.37366 11.7578C6.72754 11.5882 7.11495 11.5001 7.50737 11.5H22.4909C22.8836 11.4999 23.2713 11.5878 23.6255 11.7574C23.9797 11.927 24.2914 12.174 24.5375 12.48L28.4207 17.3126C28.7953 17.779 28.9994 18.3594 28.9991 18.9576V33.375C28.9991 34.0712 28.7225 34.7389 28.2303 35.2312C27.738 35.7234 27.0703 36 26.3741 36H3.625C2.92881 36 2.26113 35.7234 1.76884 35.2312C1.27656 34.7389 1 34.0712 1 33.375V18.9576C0.999718 18.3594 1.20377 17.779 1.57838 17.3126L5.4625 12.48Z" fill="white" stroke="white" stroke-width="2" stroke-linejoin="round"/>
<path d="M9.75 23.75H20.25M15 18.5V29" stroke="black" stroke-width="2" stroke-linecap="round" stroke-linejoin="round"/>
</mask>
<g mask="url(#mask0_46_220)">
<path d="M0.125 0.125H29.875V36.875H0.125V0.125Z" fill="white"/>
</g>
</svg>
