<svg width="45" height="45" viewBox="0 0 45 45" fill="none" xmlns="http://www.w3.org/2000/svg">
<path d="M22.5 18C24.8869 18 27.1761 17.0518 28.864 15.364C30.5518 13.6761 31.5 11.3869 31.5 9C31.5 6.61305 30.5518 4.32387 28.864 2.63604C27.1761 0.948212 24.8869 0 22.5 0C20.1131 0 17.8239 0.948212 16.136 2.63604C14.4482 4.32387 13.5 6.61305 13.5 9C13.5 11.3869 14.4482 13.6761 16.136 15.364C17.8239 17.0518 20.1131 18 22.5 18ZM7.875 24.75C9.36684 24.75 10.7976 24.1574 11.8525 23.1025C12.9074 22.0476 13.5 20.6168 13.5 19.125C13.5 17.6332 12.9074 16.2024 11.8525 15.1475C10.7976 14.0926 9.36684 13.5 7.875 13.5C6.38316 13.5 4.95242 14.0926 3.89752 15.1475C2.84263 16.2024 2.25 17.6332 2.25 19.125C2.25 20.6168 2.84263 22.0476 3.89752 23.1025C4.95242 24.1574 6.38316 24.75 7.875 24.75ZM42.75 19.125C42.75 20.6168 42.1574 22.0476 41.1025 23.1025C40.0476 24.1574 38.6168 24.75 37.125 24.75C35.6332 24.75 34.2024 24.1574 33.1475 23.1025C32.0926 22.0476 31.5 20.6168 31.5 19.125C31.5 17.6332 32.0926 16.2024 33.1475 15.1475C34.2024 14.0926 35.6332 13.5 37.125 13.5C38.6168 13.5 40.0476 14.0926 41.1025 15.1475C42.1574 16.2024 42.75 17.6332 42.75 19.125ZM22.5 20.25C25.4837 20.25 28.3452 21.4353 30.455 23.545C32.5647 25.6548 33.75 28.5163 33.75 31.5V45H11.25V31.5C11.25 28.5163 12.4353 25.6548 14.545 23.545C16.6548 21.4353 19.5163 20.25 22.5 20.25ZM6.75 31.5C6.75 29.9408 6.975 28.4355 7.398 27.0135L7.0155 27.045C5.08698 27.2568 3.30449 28.1729 2.00984 29.6179C0.715189 31.0629 -0.000503458 32.9349 2.65719e-07 34.875V45H6.75V31.5ZM45 45V34.875C45.0002 32.8688 44.2348 30.9382 42.86 29.4772C41.4851 28.0162 39.6045 27.135 37.602 27.0135C38.0228 28.4355 38.25 29.9408 38.25 31.5V45H45Z" fill="#0077C8"/>
</svg>
