<svg width="22" height="17" viewBox="0 0 22 17" fill="none" xmlns="http://www.w3.org/2000/svg">
<path d="M18.3815 7.65011H1.41297C1.17084 7.65011 0.938619 7.73965 0.767404 7.89904C0.596188 8.05842 0.5 8.27459 0.5 8.5C0.5 8.72541 0.596188 8.94158 0.767404 9.10097C0.938619 9.26035 1.17084 9.34989 1.41297 9.34989H18.3815L11.7223 15.5473C11.5508 15.7069 11.4545 15.9233 11.4545 16.149C11.4545 16.3747 11.5508 16.5912 11.7223 16.7508C11.8937 16.9103 12.1262 17 12.3686 17C12.6111 17 12.8436 16.9103 13.015 16.7508L21.2318 9.10172C21.3168 9.02278 21.3843 8.92899 21.4303 8.82574C21.4763 8.72248 21.5 8.61179 21.5 8.5C21.5 8.38821 21.4763 8.27752 21.4303 8.17426C21.3843 8.07101 21.3168 7.97722 21.2318 7.89828L13.015 0.249242C12.8436 0.0896549 12.6111 0 12.3686 0C12.1262 0 11.8937 0.0896549 11.7223 0.249242C11.5508 0.408829 11.4545 0.625276 11.4545 0.850966C11.4545 1.07666 11.5508 1.2931 11.7223 1.45269L18.3815 7.65011Z" fill="white"/>
</svg>
